<mxfile host="app.diagrams.net" modified="2023-02-12T19:59:27.888Z" agent="5.0 (Windows NT 10.0; Win64; x64) AppleWebKit/537.36 (KHTML, like Gecko) Chrome/108.0.0.0 YaBrowser/23.1.2.931 Yowser/2.5 Safari/537.36" etag="YdLFwC2Lwt8kj0a8V2zD" version="20.8.20" type="github">
  <diagram name="Page-1" id="2c0d36ab-eaac-3732-788b-9136903baeff">
    <mxGraphModel dx="4130.5" dy="1369" grid="1" gridSize="10" guides="1" tooltips="1" connect="1" arrows="1" fold="1" page="1" pageScale="1.5" pageWidth="1169" pageHeight="827" background="none" math="0" shadow="0">
      <root>
        <mxCell id="0" />
        <mxCell id="1" parent="0" />
        <mxCell id="hjXKdelXAHmComiaKtAr-131" style="edgeStyle=orthogonalEdgeStyle;rounded=0;orthogonalLoop=1;jettySize=auto;html=1;exitX=0.5;exitY=1;exitDx=0;exitDy=0;entryX=0.5;entryY=0;entryDx=0;entryDy=0;fontSize=28;" edge="1" parent="1" source="hjXKdelXAHmComiaKtAr-123" target="hjXKdelXAHmComiaKtAr-130">
          <mxGeometry relative="1" as="geometry" />
        </mxCell>
        <mxCell id="hjXKdelXAHmComiaKtAr-132" style="edgeStyle=orthogonalEdgeStyle;rounded=0;orthogonalLoop=1;jettySize=auto;html=1;exitX=0.5;exitY=1;exitDx=0;exitDy=0;entryX=0.5;entryY=0;entryDx=0;entryDy=0;fontSize=28;" edge="1" parent="1" source="hjXKdelXAHmComiaKtAr-123" target="hjXKdelXAHmComiaKtAr-124">
          <mxGeometry relative="1" as="geometry" />
        </mxCell>
        <mxCell id="hjXKdelXAHmComiaKtAr-133" style="edgeStyle=orthogonalEdgeStyle;rounded=0;orthogonalLoop=1;jettySize=auto;html=1;exitX=0.5;exitY=1;exitDx=0;exitDy=0;entryX=0.5;entryY=0;entryDx=0;entryDy=0;fontSize=28;" edge="1" parent="1" source="hjXKdelXAHmComiaKtAr-123" target="hjXKdelXAHmComiaKtAr-125">
          <mxGeometry relative="1" as="geometry" />
        </mxCell>
        <mxCell id="hjXKdelXAHmComiaKtAr-134" style="edgeStyle=orthogonalEdgeStyle;rounded=0;orthogonalLoop=1;jettySize=auto;html=1;exitX=0.5;exitY=1;exitDx=0;exitDy=0;entryX=0.5;entryY=0;entryDx=0;entryDy=0;fontSize=28;" edge="1" parent="1" source="hjXKdelXAHmComiaKtAr-123" target="hjXKdelXAHmComiaKtAr-126">
          <mxGeometry relative="1" as="geometry" />
        </mxCell>
        <mxCell id="hjXKdelXAHmComiaKtAr-135" style="edgeStyle=orthogonalEdgeStyle;rounded=0;orthogonalLoop=1;jettySize=auto;html=1;exitX=0.5;exitY=1;exitDx=0;exitDy=0;entryX=0.5;entryY=0;entryDx=0;entryDy=0;fontSize=28;" edge="1" parent="1" source="hjXKdelXAHmComiaKtAr-123" target="hjXKdelXAHmComiaKtAr-129">
          <mxGeometry relative="1" as="geometry" />
        </mxCell>
        <mxCell id="hjXKdelXAHmComiaKtAr-136" style="edgeStyle=orthogonalEdgeStyle;rounded=0;orthogonalLoop=1;jettySize=auto;html=1;exitX=0.5;exitY=1;exitDx=0;exitDy=0;entryX=0.5;entryY=0;entryDx=0;entryDy=0;fontSize=28;" edge="1" parent="1" source="hjXKdelXAHmComiaKtAr-123" target="hjXKdelXAHmComiaKtAr-128">
          <mxGeometry relative="1" as="geometry" />
        </mxCell>
        <mxCell id="hjXKdelXAHmComiaKtAr-137" style="edgeStyle=orthogonalEdgeStyle;rounded=0;orthogonalLoop=1;jettySize=auto;html=1;exitX=0.5;exitY=1;exitDx=0;exitDy=0;fontSize=28;" edge="1" parent="1" source="hjXKdelXAHmComiaKtAr-123" target="hjXKdelXAHmComiaKtAr-127">
          <mxGeometry relative="1" as="geometry" />
        </mxCell>
        <mxCell id="hjXKdelXAHmComiaKtAr-123" value="&lt;font style=&quot;font-size: 28px;&quot;&gt;Главная&lt;/font&gt;" style="rounded=1;whiteSpace=wrap;html=1;" vertex="1" parent="1">
          <mxGeometry x="640" y="80" width="230" height="80" as="geometry" />
        </mxCell>
        <mxCell id="hjXKdelXAHmComiaKtAr-124" value="&lt;font style=&quot;font-size: 28px;&quot;&gt;Абитуриентам&lt;/font&gt;" style="rounded=1;whiteSpace=wrap;html=1;" vertex="1" parent="1">
          <mxGeometry y="240" width="230" height="80" as="geometry" />
        </mxCell>
        <mxCell id="hjXKdelXAHmComiaKtAr-125" value="&lt;font style=&quot;font-size: 28px;&quot;&gt;Студентам&lt;/font&gt;" style="rounded=1;whiteSpace=wrap;html=1;" vertex="1" parent="1">
          <mxGeometry x="320" y="240" width="230" height="80" as="geometry" />
        </mxCell>
        <mxCell id="hjXKdelXAHmComiaKtAr-126" value="&lt;font style=&quot;font-size: 28px;&quot;&gt;Сотрудникам&lt;/font&gt;" style="rounded=1;whiteSpace=wrap;html=1;" vertex="1" parent="1">
          <mxGeometry x="640" y="240" width="230" height="80" as="geometry" />
        </mxCell>
        <mxCell id="hjXKdelXAHmComiaKtAr-127" value="&lt;font style=&quot;font-size: 28px;&quot;&gt;Партнерам&lt;/font&gt;" style="rounded=1;whiteSpace=wrap;html=1;" vertex="1" parent="1">
          <mxGeometry x="960" y="240" width="230" height="80" as="geometry" />
        </mxCell>
        <mxCell id="hjXKdelXAHmComiaKtAr-128" value="&lt;font style=&quot;font-size: 28px;&quot;&gt;Наука&lt;/font&gt;" style="rounded=1;whiteSpace=wrap;html=1;" vertex="1" parent="1">
          <mxGeometry x="1280" y="240" width="230" height="80" as="geometry" />
        </mxCell>
        <mxCell id="hjXKdelXAHmComiaKtAr-129" value="&lt;font style=&quot;font-size: 28px;&quot;&gt;Контакты&lt;/font&gt;" style="rounded=1;whiteSpace=wrap;html=1;" vertex="1" parent="1">
          <mxGeometry x="1600" y="240" width="230" height="80" as="geometry" />
        </mxCell>
        <mxCell id="hjXKdelXAHmComiaKtAr-148" style="edgeStyle=orthogonalEdgeStyle;rounded=0;orthogonalLoop=1;jettySize=auto;html=1;exitX=0.5;exitY=1;exitDx=0;exitDy=0;entryX=1;entryY=0.5;entryDx=0;entryDy=0;fontSize=24;" edge="1" parent="1" source="hjXKdelXAHmComiaKtAr-130" target="hjXKdelXAHmComiaKtAr-147">
          <mxGeometry relative="1" as="geometry" />
        </mxCell>
        <mxCell id="hjXKdelXAHmComiaKtAr-149" style="edgeStyle=orthogonalEdgeStyle;rounded=0;orthogonalLoop=1;jettySize=auto;html=1;exitX=0.5;exitY=1;exitDx=0;exitDy=0;entryX=1;entryY=0.5;entryDx=0;entryDy=0;fontSize=24;" edge="1" parent="1" source="hjXKdelXAHmComiaKtAr-130" target="hjXKdelXAHmComiaKtAr-146">
          <mxGeometry relative="1" as="geometry" />
        </mxCell>
        <mxCell id="hjXKdelXAHmComiaKtAr-150" style="edgeStyle=orthogonalEdgeStyle;rounded=0;orthogonalLoop=1;jettySize=auto;html=1;exitX=0.5;exitY=1;exitDx=0;exitDy=0;entryX=1;entryY=0.5;entryDx=0;entryDy=0;fontSize=24;" edge="1" parent="1" source="hjXKdelXAHmComiaKtAr-130" target="hjXKdelXAHmComiaKtAr-145">
          <mxGeometry relative="1" as="geometry" />
        </mxCell>
        <mxCell id="hjXKdelXAHmComiaKtAr-151" style="edgeStyle=orthogonalEdgeStyle;rounded=0;orthogonalLoop=1;jettySize=auto;html=1;exitX=0.5;exitY=1;exitDx=0;exitDy=0;entryX=1;entryY=0.5;entryDx=0;entryDy=0;fontSize=24;" edge="1" parent="1" source="hjXKdelXAHmComiaKtAr-130" target="hjXKdelXAHmComiaKtAr-144">
          <mxGeometry relative="1" as="geometry" />
        </mxCell>
        <mxCell id="hjXKdelXAHmComiaKtAr-152" style="edgeStyle=orthogonalEdgeStyle;rounded=0;orthogonalLoop=1;jettySize=auto;html=1;exitX=0.5;exitY=1;exitDx=0;exitDy=0;entryX=1;entryY=0.5;entryDx=0;entryDy=0;fontSize=24;" edge="1" parent="1" source="hjXKdelXAHmComiaKtAr-130" target="hjXKdelXAHmComiaKtAr-143">
          <mxGeometry relative="1" as="geometry" />
        </mxCell>
        <mxCell id="hjXKdelXAHmComiaKtAr-153" style="edgeStyle=orthogonalEdgeStyle;rounded=0;orthogonalLoop=1;jettySize=auto;html=1;exitX=0.5;exitY=1;exitDx=0;exitDy=0;entryX=1;entryY=0.5;entryDx=0;entryDy=0;fontSize=24;" edge="1" parent="1" source="hjXKdelXAHmComiaKtAr-130" target="hjXKdelXAHmComiaKtAr-142">
          <mxGeometry relative="1" as="geometry" />
        </mxCell>
        <mxCell id="hjXKdelXAHmComiaKtAr-154" style="edgeStyle=orthogonalEdgeStyle;rounded=0;orthogonalLoop=1;jettySize=auto;html=1;exitX=0.5;exitY=1;exitDx=0;exitDy=0;entryX=1;entryY=0.5;entryDx=0;entryDy=0;fontSize=24;" edge="1" parent="1" source="hjXKdelXAHmComiaKtAr-130" target="hjXKdelXAHmComiaKtAr-141">
          <mxGeometry relative="1" as="geometry" />
        </mxCell>
        <mxCell id="hjXKdelXAHmComiaKtAr-155" style="edgeStyle=orthogonalEdgeStyle;rounded=0;orthogonalLoop=1;jettySize=auto;html=1;exitX=0.5;exitY=1;exitDx=0;exitDy=0;entryX=1;entryY=0.5;entryDx=0;entryDy=0;fontSize=24;" edge="1" parent="1" source="hjXKdelXAHmComiaKtAr-130" target="hjXKdelXAHmComiaKtAr-140">
          <mxGeometry relative="1" as="geometry" />
        </mxCell>
        <mxCell id="hjXKdelXAHmComiaKtAr-156" style="edgeStyle=orthogonalEdgeStyle;rounded=0;orthogonalLoop=1;jettySize=auto;html=1;exitX=0.5;exitY=1;exitDx=0;exitDy=0;entryX=1;entryY=0.5;entryDx=0;entryDy=0;fontSize=24;" edge="1" parent="1" source="hjXKdelXAHmComiaKtAr-130" target="hjXKdelXAHmComiaKtAr-139">
          <mxGeometry relative="1" as="geometry" />
        </mxCell>
        <mxCell id="hjXKdelXAHmComiaKtAr-157" style="edgeStyle=orthogonalEdgeStyle;rounded=0;orthogonalLoop=1;jettySize=auto;html=1;exitX=0.5;exitY=1;exitDx=0;exitDy=0;entryX=1;entryY=0.5;entryDx=0;entryDy=0;fontSize=24;" edge="1" parent="1" source="hjXKdelXAHmComiaKtAr-130" target="hjXKdelXAHmComiaKtAr-138">
          <mxGeometry relative="1" as="geometry" />
        </mxCell>
        <mxCell id="hjXKdelXAHmComiaKtAr-130" value="&lt;font style=&quot;font-size: 28px;&quot;&gt;Университет&lt;/font&gt;" style="rounded=1;whiteSpace=wrap;html=1;" vertex="1" parent="1">
          <mxGeometry x="-310" y="240" width="230" height="80" as="geometry" />
        </mxCell>
        <mxCell id="hjXKdelXAHmComiaKtAr-138" value="&lt;font style=&quot;font-size: 28px;&quot;&gt;Университет&lt;/font&gt;" style="rounded=1;whiteSpace=wrap;html=1;" vertex="1" parent="1">
          <mxGeometry x="-560" y="380" width="230" height="80" as="geometry" />
        </mxCell>
        <mxCell id="hjXKdelXAHmComiaKtAr-139" value="&lt;font style=&quot;font-size: 24px;&quot;&gt;Миссия и ценности университета&lt;/font&gt;" style="rounded=1;whiteSpace=wrap;html=1;" vertex="1" parent="1">
          <mxGeometry x="-560" y="490" width="230" height="80" as="geometry" />
        </mxCell>
        <mxCell id="hjXKdelXAHmComiaKtAr-140" value="&lt;font style=&quot;font-size: 28px;&quot;&gt;История&lt;/font&gt;" style="rounded=1;whiteSpace=wrap;html=1;" vertex="1" parent="1">
          <mxGeometry x="-560" y="600" width="230" height="80" as="geometry" />
        </mxCell>
        <mxCell id="hjXKdelXAHmComiaKtAr-141" value="&lt;font style=&quot;font-size: 22px;&quot;&gt;Сведения об образовательной организации&lt;/font&gt;" style="rounded=1;whiteSpace=wrap;html=1;" vertex="1" parent="1">
          <mxGeometry x="-560" y="710" width="230" height="80" as="geometry" />
        </mxCell>
        <mxCell id="hjXKdelXAHmComiaKtAr-142" value="&lt;font style=&quot;font-size: 24px;&quot;&gt;Продиводействие коррупции итерроризму&lt;/font&gt;" style="rounded=1;whiteSpace=wrap;html=1;" vertex="1" parent="1">
          <mxGeometry x="-560" y="820" width="230" height="80" as="geometry" />
        </mxCell>
        <mxCell id="hjXKdelXAHmComiaKtAr-143" value="&lt;font style=&quot;font-size: 28px;&quot;&gt;Институты&lt;/font&gt;" style="rounded=1;whiteSpace=wrap;html=1;" vertex="1" parent="1">
          <mxGeometry x="-560" y="930" width="230" height="80" as="geometry" />
        </mxCell>
        <mxCell id="hjXKdelXAHmComiaKtAr-144" value="&lt;font style=&quot;font-size: 28px;&quot;&gt;Ученый совет&lt;/font&gt;" style="rounded=1;whiteSpace=wrap;html=1;" vertex="1" parent="1">
          <mxGeometry x="-560" y="1040" width="230" height="80" as="geometry" />
        </mxCell>
        <mxCell id="hjXKdelXAHmComiaKtAr-145" value="&lt;font style=&quot;font-size: 28px;&quot;&gt;Колледж ПсковГУ&lt;/font&gt;" style="rounded=1;whiteSpace=wrap;html=1;" vertex="1" parent="1">
          <mxGeometry x="-550" y="1150" width="230" height="80" as="geometry" />
        </mxCell>
        <mxCell id="hjXKdelXAHmComiaKtAr-146" value="&lt;font style=&quot;font-size: 28px;&quot;&gt;Бассейн &quot;Универсант&quot;&lt;/font&gt;" style="rounded=1;whiteSpace=wrap;html=1;" vertex="1" parent="1">
          <mxGeometry x="-550" y="1260" width="230" height="80" as="geometry" />
        </mxCell>
        <mxCell id="hjXKdelXAHmComiaKtAr-147" value="&lt;font style=&quot;font-size: 28px;&quot;&gt;Международная деятельность&lt;/font&gt;" style="rounded=1;whiteSpace=wrap;html=1;" vertex="1" parent="1">
          <mxGeometry x="-550" y="1370" width="230" height="80" as="geometry" />
        </mxCell>
      </root>
    </mxGraphModel>
  </diagram>
</mxfile>
